Coordinates																																												
version=1																																												
nRows=22																																												
nColumns=45																																												
inDegrees=yes																																												
																																												
"Units are S.I. units (second, meters, Newtons, ...)"																																												
Angles are in degrees.																																												
																																												
endheader																																												
time	pelvis_tilt	pelvis_list	pelvis_rotation	pelvis_tx	pelvis_ty	pelvis_tz	hip_flexion_r	hip_adduction_r	hip_rotation_r	knee_angle_r	knee_adduction_r	knee_angle_r_beta	ankle_angle_r	subtalar_angle_r	mtp_angle_r	hip_flexion_l	hip_adduction_l	hip_rotation_l	knee_angle_l	knee_adduction_l	knee_angle_l_beta	ankle_angle_l	subtalar_angle_l	mtp_angle_l	lumbar_extension	lumbar_bending	lumbar_rotation	thoracic_extension	thoracic_bending	thoracic_rotation	arm_flex_r	arm_add_r	arm_rot_r	elbow_flex_r	pro_sup_r	wrist_flex_r	wrist_dev_r	arm_flex_l	arm_add_l	arm_rot_l	elbow_flex_l	pro_sup_l	wrist_flex_l	wrist_dev_l
18.49	-2.82120032	2.76872107	-2.35718123	0.70891094	0.94937501	0.45279626	25.96877144	-6.47770483	-1.33585277	70.62713196	5.063	1.23267599	1.23494721	-12.13883463	1.38643883	9.50016861	4.58661304	-5.14671814	21.48787149	5.063	0.37503411	15.29947785	-7.05736036	2.12516756	-4.52029653	-0.29259196	-0.06681847	0	0	0	5.90103555	-12.90659641	2.84996792	29.53543557	89.99911678	0	0	-0.01818028	-12.74255096	9.94459502	35.28012272	89.99945425	0	0
18.50078571	-3.18199101	2.70266017	-1.97412273	0.70709369	0.9507737	0.45305022	27.77423013	-6.25610574	-1.58787557	68.8940347	5.063	1.20242774	2.07103067	-11.61897846	0.77146727	8.5637683	4.49276605	-5.0304433	20.74624442	5.063	0.36209027	15.28941662	-6.22044917	1.79267527	-4.2607114	-0.2148881	-0.62816681	0	0	0	4.5804417	-12.74889671	2.8336952	29.24327023	89.99911678	0	0	0.76889022	-13.17193081	9.74069894	36.21917474	89.99945425	0	0
18.51157143	-3.53061077	2.65296635	-1.59936738	0.70523746	0.95191275	0.45317217	29.38943056	-6.16701712	-1.94392375	66.90814033	5.063	1.16776735	2.83629137	-10.80481959	0.27071845	7.64823163	4.41385683	-4.96592747	20.02491144	5.063	0.34950064	15.22750709	-5.45226354	1.39519826	-4.03316245	-0.1460964	-1.19044475	0	0	0	3.37642027	-12.58820238	2.77900163	28.88576294	89.99911678	0	0	1.57306702	-13.66389407	9.56793562	37.27919388	89.99945425	0	0
18.52235714	-3.07852309	2.44384586	-1.10946351	0.70389288	0.95393048	0.45290844	29.7616548	-6.06133399	-2.55673433	64.43902351	5.063	1.12467313	3.44418387	-10.00879676	-0.28334209	5.72507625	4.25601923	-4.52724007	19.0176548	5.063	0.33192069	14.8485184	-5.07279628	0.15156192	-4.70087776	0.10535043	-2.13523575	0	0	0	3.16113366	-12.16927497	2.09155627	26.45030609	89.99911678	0	0	1.72210316	-14.39164013	9.70027705	40.01351342	89.99945425	0	0
18.53314286	-3.49603294	2.55901671	-0.70578932	0.70225486	0.95419699	0.45303853	31.16553404	-6.20090675	-2.89506479	62.02493263	5.063	1.08253929	4.01676461	-9.23622172	-0.18493257	4.93151118	4.32799488	-4.45634788	18.35699532	5.063	0.32039001	14.85935194	-4.2524856	-0.08311586	-4.3608032	-0.03677779	-2.67763511	0	0	0	1.9030825	-12.01469107	2.03166046	26.28065316	89.99911678	0	0	2.49429365	-14.90425212	9.46607222	40.95734721	89.99945425	0	0
18.54392857	-3.14062637	2.34452096	-0.23927343	0.70106913	0.95539149	0.45274968	31.3682478	-6.15015938	-3.57837263	59.09454338	5.063	1.03139435	4.60262907	-8.34051821	0.52004909	3.17823641	4.12457123	-4.01567497	17.46084943	5.063	0.30474931	14.65823979	-3.90130955	-0.94824223	-4.89281124	0.25350903	-3.49763095	0	0	0	1.41114804	-11.8104105	1.4214823	24.75295438	89.99911678	0	0	2.73517204	-15.54912509	9.4671866	43.35030575	89.99945425	0	0
18.55471429	-3.55926447	2.63414011	0.13914523	0.69956416	0.9548054	0.45295374	32.55997986	-6.4968877	-3.8579427	56.25042221	5.063	0.98175507	4.89475576	-7.75958592	0.59076386	2.40051118	4.37470737	-3.89404099	16.82402634	5.063	0.29363465	14.68371086	-3.20506625	-1.20075734	-4.5105051	-0.08187634	-3.96901997	0	0	0	0.24226947	-11.64946595	1.35223769	24.60956196	89.99911678	0	0	3.54205699	-16.09680865	9.23168046	44.26884891	89.99945425	0	0
18.5655	-3.89822982	2.77946788	0.4905378	0.6983336	0.95410478	0.45307898	33.4736622	-6.71836978	-4.2173268	53.06151912	5.063	0.92609821	5.0906089	-7.16945578	0.72690723	1.45511861	4.4921787	-3.63227004	16.06012278	5.063	0.28030202	14.71466521	-2.7018552	-1.62383503	-4.24112597	-0.26824373	-4.37535538	0	0	0	-0.86985381	-11.57484417	1.21372546	24.23889148	89.99911678	0	0	4.12500253	-16.53661951	9.13660391	45.43323896	89.99945425	0	0
18.57628571	-3.41863693	2.41171309	0.77056597	0.6971289	0.95447183	0.45308823	33.13034255	-6.42497892	-4.88296606	49.20210917	5.063	0.8587388	5.07977105	-6.65544864	0.7017024	-0.37083236	4.07812954	-3.22605981	15.27045121	5.063	0.26651965	14.55864231	-2.65327245	-2.89205749	-4.96406656	0.20852819	-4.9633087	0	0	0	-1.14225329	-11.52741412	0.60038919	22.96735631	89.99911678	0	0	4.36170788	-17.26608996	9.3516562	48.01522284	89.99945425	0	0
18.58707143	-3.20003368	2.52897283	1.06768351	0.69542202	0.95384032	0.4536972	33.19224181	-6.54215825	-5.20254864	45.43271763	5.063	0.79295051	5.0870337	-6.26006448	0.38327342	-1.85386205	4.09080943	-3.0297821	14.5758572	5.063	0.2543967	14.55045918	-2.16149904	-3.66609563	-5.44466681	0.02524663	-5.45483394	0	0	0	-1.60547562	-11.27501239	-0.09165125	22.14034463	89.99911678	0	0	4.85602407	-17.98844292	9.14157179	49.99051739	89.99945425	0	0
18.59785714	-3.77895971	2.87977092	1.28369444	0.69379243	0.95173176	0.45424554	34.16241291	-6.84501736	-5.22332021	41.69541942	5.063	0.72772235	5.26377596	-5.71003562	0.34056954	-2.43375437	4.39015373	-2.83784001	14.01000108	5.063	0.24452065	14.69024555	-1.78304037	-3.97050426	-4.96822823	-0.42568426	-5.66038016	0	0	0	-2.59931213	-11.19911368	-0.18102881	22.08942844	89.99911678	0	0	5.61158668	-18.46682137	8.94878282	50.85419879	89.99945425	0	0
18.60864286	-4.12528885	2.68788825	1.30274797	0.69257785	0.95009666	0.45484794	34.46152814	-6.47709636	-5.30853584	37.25264493	5.063	0.65018131	5.18935813	-5.25383281	-0.14554223	-3.25244798	4.12622713	-2.78945379	13.49072181	5.063	0.23545751	14.73537313	-1.69094799	-4.91054269	-4.7246956	-0.19009064	-5.69108169	0	0	0	-3.32685722	-11.32211232	-0.46008294	21.75874527	89.99911678	0	0	6.05738579	-18.89203461	9.01396375	52.2717648	89.99945425	0	0
18.61942857	-4.26726069	2.69805646	1.36809826	0.69104009	0.94831355	0.45577265	34.49139298	-6.29055245	-5.20826139	32.78048281	5.063	0.57212736	5.30445233	-4.70790627	-0.71152345	-4.20992825	4.02106212	-2.79197503	13.11372198	5.063	0.22887763	14.77659421	-1.4182544	-5.9715994	-4.78993969	-0.21537969	-5.78118047	0	0	0	-3.87100859	-11.26134069	-0.77535551	21.45042894	89.99911678	0	0	6.62270559	-19.45404713	9.02246459	53.64979741	89.99945425	0	0
18.63021429	-4.56300375	2.82315664	1.44424652	0.68968281	0.94608058	0.45687837	34.58919808	-6.21938031	-4.96753202	28.31243536	5.063	0.49414522	5.61749694	-3.95143077	-1.0262602	-5.00721003	4.02249032	-2.78791657	12.75112313	5.063	0.22254908	14.84579073	-1.13666239	-6.8635296	-4.63094717	-0.46792095	-5.81667972	0	0	0	-4.48175165	-11.20566006	-1.02727869	21.23152499	89.99911678	0	0	7.25341878	-19.94338459	8.96511099	54.80701041	89.99945425	0	0
18.641	-4.8585255	2.95598316	1.50024364	0.688439	0.94357474	0.45796217	34.58247486	-6.15264189	-4.57072119	23.8898618	5.063	0.41695675	6.05551813	-3.03229292	-1.20979985	-5.72508275	4.03215706	-2.81973287	12.56420438	5.063	0.21928673	14.90775732	-0.87085502	-7.90089522	-4.51836522	-0.64864265	-5.8560834	0	0	0	-5.10935533	-11.17043988	-1.26559584	21.03060972	89.99911678	0	0	7.78687352	-20.39088162	8.92561528	55.87702006	89.99945425	0	0
18.65178571	-4.86156934	3.05664119	1.53728889	0.68746905	0.94116624	0.45933648	34.14325703	-6.06141577	-4.16614255	19.60757873	5.063	0.34221681	6.60533862	-2.00818672	-1.2612304	-6.67881919	3.95729198	-2.97085602	12.55981457	5.063	0.21921012	14.93081984	-0.58380402	-9.37427671	-4.67281365	-0.86317293	-5.96437523	0	0	0	-5.51931112	-11.12580586	-1.63062848	20.89774821	89.99911678	0	0	8.24570942	-20.92334554	8.8868637	57.03201333	89.99945425	0	0
18.66257143	-5.16088629	3.73973236	1.56891726	0.68618496	0.93797279	0.46045475	34.38498367	-6.62182042	-3.64871805	16.32430091	5.063	0.2849128	7.52526593	-0.45068169	-1.31615303	-7.32603383	4.54925399	-2.94088408	12.52331149	5.063	0.21857302	14.93792905	-0.36846958	-9.81213192	-4.55893264	-1.68136317	-5.98663926	0	0	0	-5.90505709	-10.98318742	-1.68009522	20.74406608	89.99911678	0	0	8.9455963	-21.41205295	8.70120124	57.42381474	89.99945425	0	0
18.67335714	-5.36936263	3.59390705	1.7750372	0.68639541	0.93520037	0.46156278	33.99637123	-6.45491155	-3.49215473	12.86298902	5.063	0.22450151	8.28964691	0.69723635	-0.76863392	-7.92629514	4.16080841	-3.09459073	12.8858373	5.063	0.22490029	14.92423031	0.04156914	-11.85669905	-4.40941296	-1.54866537	-5.97350187	0	0	0	-6.58159157	-10.95899993	-1.91856327	20.58743562	89.99911678	0	0	9.28114689	-21.66659497	8.74425509	58.46898297	89.99945425	0	0
18.68414286	-5.37756778	3.71079484	1.92502042	0.68640093	0.93242672	0.46299272	33.77279833	-6.53578063	-3.45331372	10.61410535	5.063	0.18525109	9.235613	1.93176844	-0.41207464	-8.6780056	4.01978829	-3.3000588	13.34849715	5.063	0.23297523	14.78641475	0.41386337	-13.91217222	-4.41345758	-1.77499461	-6.14935101	0	0	0	-7.03829769	-10.94505329	-2.22156941	20.77373002	89.99911678	0	0	9.48056739	-22.06850999	8.59082105	59.32471512	89.99945425	0	0
18.69492857	-5.47611117	3.76235054	2.02444804	0.68655466	0.92962067	0.46439619	33.79760784	-6.54032968	-3.50310078	9.25636639	5.063	0.16155407	10.09037266	3.01862515	-0.32791963	-9.23741706	3.80902583	-3.58373414	13.99080438	5.063	0.2441856	14.64126745	0.80790981	-15.78028404	-4.34703924	-1.88175416	-6.18226876	0	0	0	-7.44907473	-10.91982205	-2.44457933	20.81892638	89.99911678	0	0	9.75468253	-22.29553272	8.37101747	59.85829762	89.99945425	0	0
18.70571429	-5.54538191	3.6113186	2.0926736	0.68705933	0.92700686	0.46607119	33.90301447	-6.31345989	-3.66220283	8.76628885	5.063	0.1530006	10.74655555	3.69310681	-0.4386958	-9.72794525	3.33937283	-4.02070395	14.82977552	5.063	0.25882841	14.42405381	1.24963456	-18.00746784	-4.25026943	-1.77871646	-6.2364026	0	0	0	-7.77189562	-10.94568752	-2.66232012	20.87742205	89.99911678	0	0	9.9002185	-22.42826571	8.12435509	60.19378071	89.99945425	0	0
18.7165	-5.61768019	3.28651464	2.10655741	0.68786552	0.92448022	0.46771441	34.11741239	-5.8920555	-3.87868015	9.07469311	5.063	0.15838327	11.1619742	3.89796715	-0.84794749	-10.08807603	2.67875915	-4.58268295	15.9273065	5.063	0.27798394	14.17253859	1.67654171	-20.15627138	-4.10767399	-1.46761954	-6.1875674	0	0	0	-8.05325959	-10.95676892	-2.80067678	20.96936198	89.99911678	0	0	9.9976295	-22.52041238	7.85107528	60.34320458	89.99945425	0	0
